{"title":"Ordinary Lies (2015) S01E06 x264 RB58.mp4","uid":11833213,"size":643324012,"categoryP":"video","categoryS":"tv_shows","magnet":"?xt=urn:btih:bfc1a10252a86651e4d69af09555198db9e72a86&amp;dn=Ordinary+Lies+%282015%29+S01E06+x264+RB58.mp4&amp;tr=udp%3A%2F%2Ftracker.openbittorrent.com%3A80&amp;tr=udp%3A%2F%2Fopen.demonii.com%3A1337&amp;tr=udp%3A%2F%2Ftracker.coppersurfer.tk%3A6969&amp;tr=udp%3A%2F%2Fexodus.desync.com%3A6969","seeders":4,"leechers":1,"uploader":"RedBaron58","files":1,"time":1429663133,"description":"Ordinary Lies (2015) S01E06 x264 mp4\n &lt;a href=&quot;\nhttp://www.imdb.com/title/tt4273282/&quot; rel=&quot;nofollow&quot; target=&quot;_NEW&quot;&gt;\nhttp://www.imdb.com/title/tt4273282/&lt;/a&gt;\n\nTrailer:\n\nPlease be patient My intial upload speed is limited.\nThank you for your kind comments and feedback on my other torrents, your feedback is welcome.\n\n\nAbout the Episode:\nEnsemble drama following the workers at a car showroom, revealing what happens when moments \nof desperation lead some of them into telling big lies - spur of the moment deceptions that \nquickly spiral out of control. \nSixteen months after Beth's husband Dave went missing, she feels ready to move on, until she receives \nunexpected news that leaves her reeling. Leaving the kids with her mother-in-law, she travels to \nMargate, where she is forced to decide whether to leave her old life behind or move on with company boss Mike. \nBack in Warrington, Mike himself considers how much he has to lose by leaving his wife, \nwith his father-in-law a 51-per-cent holder in the company, he is risking more than just his marriage.\n\n\nI hope you enjoy.\n\n\nTechnical:\n\nGeneral\nComplete name                            : H:Ordinary Lies (2015) S01E06 x264 RB58.mp4\nFormat                                   : MPEG-4\nFormat profile                           : Base Media\nCodec ID                                 : isom\nFile size                                : 614 MiB\nDuration                                 : 56mn 15s\nOverall bit rate                         : 1 525 Kbps\nWriting application                      : Lavf54.63.104\n\nVideo\nID                                       : 1\nFormat                                   : AVC\nFormat/Info                              : Advanced Video Codec\nFormat profile                           : &lt;a class=&quot;__cf_email__&quot; href=&quot;/cdn-cgi/l/email-protection&quot; data-cfemail=&quot;b4fcddd3dcf4f8879a84&quot;&gt;[email&amp;#160;protected]&lt;/a&gt;&lt;script cf-hash='f9e31' type=&quot;text/javascript&quot;&gt;\n/* &lt;![CDATA[ */!function(){try{var t=&quot;currentScript&quot;in document?document.currentScript:function(){for(var t=document.getElementsByTagName(&quot;script&quot;),e=t.length;e--;)if(t[e].getAttribute(&quot;cf-hash&quot;))return t[e]}();if(t&amp;&amp;t.previousSibling){var e,r,n,i,c=t.previousSibling,a=c.getAttribute(&quot;data-cfemail&quot;);if(a){for(e=&quot;&quot;,r=parseInt(a.substr(0,2),16),n=2;a.length-n;n+=2)i=parseInt(a.substr(n,2),16)^r,e+=String.fromCharCode(i);e=document.createTextNode(e),c.parentNode.replaceChild(e,c)}}}catch(u){}}();/* ]]&gt; */&lt;/script&gt;\nFormat settings, CABAC                   : Yes\nFormat settings, ReFrames                : 4 frames\nCodec ID                                 : avc1\nCodec ID/Info                            : Advanced Video Coding\nDuration                                 : 56mn 15s\nBit rate                                 : 1 400 Kbps\nWidth                                    : 832 pixels\nHeight                                   : 468 pixels\nDisplay aspect ratio                     : 16:9\nFrame rate mode                          : Constant\nFrame rate                               : 25.000 fps\nColor space                              : YUV\nChroma subsampling                       : 4:2:0\nBit depth                                : 8 bits\nScan type                                : Progressive\nBits/(Pixel*Frame)                       : 0.144\nStream size                              : 563 MiB (92%)\nWriting library                          : x264 core 123 r2189 35cf912\nEncoding settings                        : cabac=1 / ref=3 / deblock=1:0:0\n\nAudio\nID                                       : 2\nFormat                                   : AAC\nFormat/Info                              : Advanced Audio Codec\nFormat profile                           : LC\nCodec ID                                 : 40\nDuration                                 : 56mn 15s\nBit rate mode                            : Constant\nBit rate                                 : 116 Kbps\nChannel(s)                               : 2 channels\nChannel positions                        : Front: L R\nSampling rate                            : 48.0 KHz\nCompression mode                         : Lossy\nStream size                              : 46.8 MiB (8%)","torrent":{"xt":"urn:btih:bfc1a10252a86651e4d69af09555198db9e72a86","amp;dn":"Ordinary+Lies+%282015%29+S01E06+x264+RB58.mp4","amp;tr":["udp%3A%2F%2Ftracker.openbittorrent.com%3A80","udp%3A%2F%2Fopen.demonii.com%3A1337","udp%3A%2F%2Ftracker.coppersurfer.tk%3A6969","udp%3A%2F%2Fexodus.desync.com%3A6969"],"infoHash":"bfc1a10252a86651e4d69af09555198db9e72a86","infoHashBuffer":{"type":"Buffer","data":[191,193,161,2,82,168,102,81,228,214,154,240,149,85,25,141,185,231,42,134]},"announce":[],"urlList":[]}}